<svg width="35" height="35" viewBox="0 0 35 35" fill="none" xmlns="http://www.w3.org/2000/svg">
<path d="M17.5003 13.125C16.0906 13.125 14.8875 12.6267 13.891 11.6302C12.8944 10.6337 12.3962 9.43055 12.3962 8.02082C12.3962 6.6111 12.8944 5.40798 13.891 4.41145C14.8875 3.41492 16.0906 2.91666 17.5003 2.91666C18.91 2.91666 20.1132 3.41492 21.1097 4.41145C22.1062 5.40798 22.6045 6.6111 22.6045 8.02082C22.6045 9.43055 22.1062 10.6337 21.1097 11.6302C20.1132 12.6267 18.91 13.125 17.5003 13.125ZM17.5003 10.2083C18.108 10.2083 18.6245 9.99565 19.0498 9.5703C19.4752 9.14495 19.6878 8.62846 19.6878 8.02082C19.6878 7.41318 19.4752 6.89669 19.0498 6.47134C18.6245 6.046 18.108 5.83332 17.5003 5.83332C16.8927 5.83332 16.3762 6.046 15.9508 6.47134C15.5255 6.89669 15.3128 7.41318 15.3128 8.02082C15.3128 8.62846 15.5255 9.14495 15.9508 9.5703C16.3762 9.99565 16.8927 10.2083 17.5003 10.2083ZM17.5003 32.0833L8.75033 23.3333C8.26421 22.8472 7.89963 22.3003 7.65658 21.6927C7.41352 21.0851 7.29199 20.4167 7.29199 19.6875C7.29199 18.2535 7.78418 17.0443 8.76855 16.0599C9.75293 15.0755 10.9621 14.5833 12.3962 14.5833C13.101 14.5833 13.7512 14.717 14.3467 14.9844C14.9422 15.2517 15.483 15.6285 15.9691 16.1146L17.5003 17.6458L19.0316 16.1146C19.5177 15.6285 20.0585 15.2517 20.654 14.9844C21.2495 14.717 21.8996 14.5833 22.6045 14.5833C24.0385 14.5833 25.2477 15.0755 26.2321 16.0599C27.2165 17.0443 27.7087 18.2535 27.7087 19.6875C27.7087 20.4167 27.5871 21.0851 27.3441 21.6927C27.101 22.3003 26.7364 22.8472 26.2503 23.3333L17.5003 32.0833ZM17.5003 27.9271L24.1357 21.2917C24.3545 21.0729 24.5186 20.8238 24.6279 20.5443C24.7373 20.2647 24.792 19.9792 24.792 19.6875C24.792 19.1042 24.5854 18.5937 24.1722 18.1562C23.759 17.7187 23.2364 17.5 22.6045 17.5C22.3128 17.5 22.0515 17.5425 21.8206 17.6276C21.5897 17.7127 21.3649 17.8646 21.1462 18.0833L17.5003 21.7292L13.8545 18.0833C13.7087 17.9375 13.5203 17.8038 13.2894 17.6823C13.0585 17.5608 12.7607 17.5 12.3962 17.5C11.7642 17.5 11.2416 17.7187 10.8285 18.1562C10.4153 18.5937 10.2087 19.1042 10.2087 19.6875C10.2087 19.9792 10.2694 20.2526 10.391 20.5078C10.5125 20.763 10.6705 21 10.8649 21.2187L17.5003 27.9271Z" fill="#18181A"/>
</svg>
