<svg width="35" height="35" viewBox="0 0 35 35" fill="none" xmlns="http://www.w3.org/2000/svg">
<path d="M14.5837 17.5C12.9795 17.5 11.6062 16.9288 10.4639 15.7865C9.32151 14.6441 8.75033 13.2708 8.75033 11.6667C8.75033 10.0625 9.32151 8.68925 10.4639 7.54689C11.6062 6.40452 12.9795 5.83334 14.5837 5.83334C16.1878 5.83334 17.5611 6.40452 18.7035 7.54689C19.8458 8.68925 20.417 10.0625 20.417 11.6667C20.417 13.2708 19.8458 14.6441 18.7035 15.7865C17.5611 16.9288 16.1878 17.5 14.5837 17.5ZM2.91699 29.1667V25.0833C2.91699 24.2813 3.12359 23.5278 3.53678 22.8229C3.94998 22.1181 4.52116 21.5833 5.25033 21.2188C6.48991 20.5868 7.88748 20.0521 9.44303 19.6146C10.9986 19.1771 12.7121 18.9583 14.5837 18.9583H15.0941C15.2399 18.9583 15.3857 18.9826 15.5316 19.0313C15.3371 19.4688 15.1731 19.9245 15.0394 20.3984C14.9057 20.8724 14.8024 21.3646 14.7295 21.875H14.5837C12.858 21.875 11.3085 22.0938 9.93522 22.5313C8.56196 22.9688 7.43783 23.4063 6.56283 23.8438C6.34408 23.9653 6.16786 24.1354 6.03418 24.3542C5.9005 24.5729 5.83366 24.816 5.83366 25.0833V26.25H15.0212C15.167 26.7604 15.3614 27.2648 15.6045 27.763C15.8475 28.2613 16.1149 28.7292 16.4066 29.1667H2.91699ZM23.3337 30.625L22.8962 28.4375C22.6045 28.316 22.3311 28.1884 22.0758 28.0547C21.8206 27.921 21.5594 27.757 21.292 27.5625L19.1774 28.2188L17.7191 25.7396L19.3962 24.2813C19.3475 23.941 19.3232 23.625 19.3232 23.3333C19.3232 23.0417 19.3475 22.7257 19.3962 22.3854L17.7191 20.9271L19.1774 18.4479L21.292 19.1042C21.5594 18.9097 21.8206 18.7457 22.0758 18.612C22.3311 18.4783 22.6045 18.3507 22.8962 18.2292L23.3337 16.0417H26.2503L26.6878 18.2292C26.9795 18.3507 27.2529 18.4844 27.5081 18.6302C27.7633 18.7761 28.0246 18.9583 28.292 19.1771L30.4066 18.4479L31.8649 21L30.1878 22.4583C30.2364 22.75 30.2607 23.0538 30.2607 23.3698C30.2607 23.6858 30.2364 23.9896 30.1878 24.2813L31.8649 25.7396L30.4066 28.2188L28.292 27.5625C28.0246 27.757 27.7633 27.921 27.5081 28.0547C27.2529 28.1884 26.9795 28.316 26.6878 28.4375L26.2503 30.625H23.3337ZM24.792 26.25C25.5941 26.25 26.2807 25.9644 26.8519 25.3932C27.4231 24.8221 27.7087 24.1354 27.7087 23.3333C27.7087 22.5313 27.4231 21.8446 26.8519 21.2734C26.2807 20.7023 25.5941 20.4167 24.792 20.4167C23.9899 20.4167 23.3033 20.7023 22.7321 21.2734C22.1609 21.8446 21.8753 22.5313 21.8753 23.3333C21.8753 24.1354 22.1609 24.8221 22.7321 25.3932C23.3033 25.9644 23.9899 26.25 24.792 26.25ZM14.5837 14.5833C15.3857 14.5833 16.0724 14.2978 16.6436 13.7266C17.2147 13.1554 17.5003 12.4688 17.5003 11.6667C17.5003 10.8646 17.2147 10.178 16.6436 9.60678C16.0724 9.0356 15.3857 8.75001 14.5837 8.75001C13.7816 8.75001 13.0949 9.0356 12.5238 9.60678C11.9526 10.178 11.667 10.8646 11.667 11.6667C11.667 12.4688 11.9526 13.1554 12.5238 13.7266C13.0949 14.2978 13.7816 14.5833 14.5837 14.5833Z" fill="#18181A"/>
</svg>
