<svg width="35" height="35" viewBox="0 0 35 35" fill="none" xmlns="http://www.w3.org/2000/svg">
<path d="M17.4997 17.5C15.8955 17.5 14.5222 16.9288 13.3799 15.7865C12.2375 14.6441 11.6663 13.2708 11.6663 11.6667C11.6663 10.0625 12.2375 8.68924 13.3799 7.54688C14.5222 6.40452 15.8955 5.83334 17.4997 5.83334C19.1038 5.83334 20.4771 6.40452 21.6195 7.54688C22.7618 8.68924 23.333 10.0625 23.333 11.6667C23.333 13.2708 22.7618 14.6441 21.6195 15.7865C20.4771 16.9288 19.1038 17.5 17.4997 17.5ZM5.83301 29.1667V25.0833C5.83301 24.2569 6.04568 23.4974 6.47103 22.8047C6.89638 22.112 7.46148 21.5833 8.16634 21.2188C9.67329 20.4653 11.2045 19.9002 12.7601 19.5234C14.3156 19.1467 15.8955 18.9583 17.4997 18.9583C19.1038 18.9583 20.6837 19.1467 22.2393 19.5234C23.7948 19.9002 25.3261 20.4653 26.833 21.2188C27.5379 21.5833 28.103 22.112 28.5283 22.8047C28.9537 23.4974 29.1663 24.2569 29.1663 25.0833V29.1667H5.83301ZM8.74967 26.25H26.2497V25.0833C26.2497 24.816 26.1828 24.5729 26.0492 24.3542C25.9155 24.1354 25.7393 23.9653 25.5205 23.8438C24.208 23.1875 22.8834 22.6953 21.5466 22.3672C20.2097 22.0391 18.8608 21.875 17.4997 21.875C16.1386 21.875 14.7896 22.0391 13.4528 22.3672C12.116 22.6953 10.7913 23.1875 9.47884 23.8438C9.26009 23.9653 9.08388 24.1354 8.9502 24.3542C8.81651 24.5729 8.74967 24.816 8.74967 25.0833V26.25ZM17.4997 14.5833C18.3018 14.5833 18.9884 14.2977 19.5596 13.7266C20.1308 13.1554 20.4163 12.4688 20.4163 11.6667C20.4163 10.8646 20.1308 10.178 19.5596 9.60677C18.9884 9.03559 18.3018 8.75 17.4997 8.75C16.6976 8.75 16.011 9.03559 15.4398 9.60677C14.8686 10.178 14.583 10.8646 14.583 11.6667C14.583 12.4688 14.8686 13.1554 15.4398 13.7266C16.011 14.2977 16.6976 14.5833 17.4997 14.5833Z" fill="#18181A"/>
</svg>
