<svg width="80" height="80" viewBox="0 0 80 80" fill="none" xmlns="http://www.w3.org/2000/svg">
<path d="M23.333 76.6667L33.583 24.8333C33.9163 23.2222 34.6663 22.0139 35.833 21.2083C36.9997 20.4028 38.2219 20 39.4997 20C40.7775 20 41.958 20.2778 43.0413 20.8333C44.1247 21.3889 44.9997 22.2222 45.6663 23.3333L48.9997 28.6667C49.9997 30.2778 51.2913 31.7361 52.8747 33.0417C54.458 34.3472 56.2775 35.3056 58.333 35.9167V30H63.333V76.6667H58.333V42.8333C55.6663 42.2222 53.1941 41.25 50.9163 39.9167C48.6386 38.5833 46.6663 36.9444 44.9997 35L42.9997 45L49.9997 51.6667V76.6667H43.333V56.6667L36.333 50L30.333 76.6667H23.333ZM24.7497 43.75L17.6663 42.4167C16.7775 42.25 16.083 41.7917 15.583 41.0417C15.083 40.2917 14.9163 39.4444 15.083 38.5L17.583 25.4167C17.9163 23.6389 18.8608 22.2361 20.4163 21.2083C21.9719 20.1806 23.6386 19.8333 25.4163 20.1667L29.2497 20.9167L24.7497 43.75ZM44.9997 18.3333C43.1663 18.3333 41.5969 17.6806 40.2913 16.375C38.9858 15.0694 38.333 13.5 38.333 11.6667C38.333 9.83333 38.9858 8.26389 40.2913 6.95833C41.5969 5.65278 43.1663 5 44.9997 5C46.833 5 48.4025 5.65278 49.708 6.95833C51.0136 8.26389 51.6663 9.83333 51.6663 11.6667C51.6663 13.5 51.0136 15.0694 49.708 16.375C48.4025 17.6806 46.833 18.3333 44.9997 18.3333Z" fill="#181818"/>
</svg>
