<?xml version="1.0" encoding="iso-8859-1"?>
<!-- Uploaded to: SVG Repo, www.svgrepo.com, Generator: SVG Repo Mixer Tools -->
<!DOCTYPE svg PUBLIC "-//W3C//DTD SVG 1.1//EN" "http://www.w3.org/Graphics/SVG/1.1/DTD/svg11.dtd">
<svg fill="#000000" version="1.1" id="Capa_1" xmlns="http://www.w3.org/2000/svg" xmlns:xlink="http://www.w3.org/1999/xlink" 
	 width="800px" height="800px" viewBox="0 0 412.029 412.029"
	 xml:space="preserve">
<g>
	<g>
		<polygon points="122.802,338.752 126.043,336.695 180.177,336.695 180.177,250.633 204.8,250.633 122.802,168.664 		"/>
		<path d="M308.696,109.52c-7.019-7.602-16.112-11.791-27.281-16.428c-11.179-4.638-24.729-5.021-40.66-5.021H122.802v1.75
			l57.375,55.988v-19.488h45.25c6.416,0,12.594,1.176,18.541,2.123c5.938,0.956,11.169,3.146,15.692,5.871
			c4.514,2.735,8.147,6.771,10.882,11.762c2.726,4.991,4.103,11.619,4.103,19.699s-1.377,14.659-4.103,19.65
			c-2.734,4.992-6.368,8.884-10.882,11.609c-4.523,2.734-9.754,4.59-15.692,5.536c-1.539,0.249-3.136,0.373-4.704,0.555
			l38.632,38.643c1.157-0.412,2.4-0.746,3.51-1.205c11.169-4.639,20.263-10.758,27.282-18.361
			c7.009-7.602,12.125-16.341,15.338-26.21c3.203-9.858,4.81-19.908,4.81-30.131c0-10.461-1.606-20.56-4.81-30.313
			C320.822,125.814,315.706,117.141,308.696,109.52z"/>
		<path d="M206.015,0C92.24,0,0,92.23,0,206.015c0,113.774,92.23,206.014,206.015,206.014c113.774,0,206.015-92.23,206.015-206.014
			C412.029,92.23,319.789,0,206.015,0z M206.015,371.59c-91.025,0-165.594-74.178-165.594-165.203
			c0-38.059,12.24-73.392,33.909-101.295l48.472,50.041l95.529,95.5l88.597,87.039C279.024,359.34,244.073,371.59,206.015,371.59z
			 M333.101,310.705l-65.8-64.346c0.028-0.01,0.058-0.01,0.076-0.02l-40.803-42.18c-0.393,0-0.756-1.339-1.147-1.339h-0.297
			l-44.953-43.49l-57.375-55.988L99.756,78.728c28.467-23.447,65.713-37.533,105.474-37.533c91.025,0,165.202,73.784,165.202,164.81
			C370.433,245.766,356.548,282.238,333.101,310.705z"/>
	</g>
</g>
</svg>