<?xml version="1.0" encoding="iso-8859-1"?>
<!-- Uploaded to: SVG Repo, www.svgrepo.com, Generator: SVG Repo Mixer Tools -->
<!DOCTYPE svg PUBLIC "-//W3C//DTD SVG 1.1//EN" "http://www.w3.org/Graphics/SVG/1.1/DTD/svg11.dtd">
<svg fill="#000000" version="1.1" id="Capa_1" xmlns="http://www.w3.org/2000/svg" xmlns:xlink="http://www.w3.org/1999/xlink" 
	 width="800px" height="800px" viewBox="0 0 59.166 59.166"
	 xml:space="preserve">
<g>
	<g>
		<path d="M29.583,59.166c16.338,0,29.583-13.245,29.583-29.583S45.921,0,29.583,0C13.245-0.001,0,13.244,0,29.583
			C0,45.921,13.245,59.166,29.583,59.166z M29.583,4.999c13.556,0,24.583,11.028,24.583,24.583c0,5.674-1.938,10.902-5.18,15.066
			L37.98,33.677h5.687v-8.565H29.39L14.457,10.225C18.632,6.956,23.882,4.999,29.583,4.999z M10.216,14.47l10.675,10.642H8v8.565
			h21.483l15.274,15.228c-4.182,3.292-9.45,5.263-15.173,5.263C16.028,54.166,5,43.139,5,29.583C5,23.887,6.952,18.642,10.216,14.47
			z"/>
		<rect x="45" y="25.112" width="2.667" height="8.565"/>
		<rect x="49" y="25.112" width="2.667" height="8.565"/>
		<path d="M37.494,16.204c0,0,10.006-0.041,12.173,6.36c0,0-0.5-10.059-12.833-9.874s-11.5-5.733-11.5-5.733
			S21.988,14.539,37.494,16.204z"/>
		<path d="M46.833,24.298c0,0-0.409-7.038-10.489-6.908c-10.081,0.129-9.399-4.011-9.399-4.011s-2.734,5.305,9.94,6.47
			C36.884,19.848,45.062,19.82,46.833,24.298z"/>
	</g>
</g>
</svg>