<?xml version="1.0" encoding="iso-8859-1"?>
<!-- Uploaded to: SVG Repo, www.svgrepo.com, Generator: SVG Repo Mixer Tools -->
<!DOCTYPE svg PUBLIC "-//W3C//DTD SVG 1.1//EN" "http://www.w3.org/Graphics/SVG/1.1/DTD/svg11.dtd">
<svg fill="#000000" version="1.1" id="Capa_1" xmlns="http://www.w3.org/2000/svg" xmlns:xlink="http://www.w3.org/1999/xlink" 
	 width="800px" height="800px" viewBox="0 0 360.001 360.001"
	 xml:space="preserve">
<g>
	<g>
		<g>
			<path d="M229.088,226.178H6.478c-3.573,0-6.478,2.9-6.478,6.478v55.73c0,3.58,2.904,6.481,6.478,6.481h222.61
				c3.572,0,6.479-2.901,6.479-6.481v-55.73C235.564,229.079,232.66,226.178,229.088,226.178z"/>
			<path d="M315.209,226.178h-49.184c-3.582,0-6.484,2.9-6.484,6.478v55.73c0,3.58,2.902,6.481,6.484,6.481h49.184
				c3.574,0,6.479-2.901,6.479-6.481v-55.73C321.688,229.079,318.783,226.178,315.209,226.178z"/>
			<path d="M264.375,196.973c1.648,1,3.465,1.476,5.262,1.476c3.432,0,6.779-1.739,8.691-4.889l24.693-40.685
				c2.545-4.192,1.729-9.603-1.936-12.861l-29.242-26l20.299-33.452c2.91-4.794,1.385-11.042-3.41-13.952
				c-4.796-2.911-11.041-1.382-13.951,3.413l-24.693,40.688c-2.545,4.192-1.729,9.603,1.936,12.86l29.24,25.999l-20.301,33.449
				C258.051,187.815,259.58,194.063,264.375,196.973z"/>
			<path d="M356.592,140.013l-29.242-26l20.305-33.452c2.906-4.794,1.379-11.042-3.416-13.952
				c-4.795-2.911-11.041-1.382-13.953,3.413l-24.694,40.689c-2.543,4.192-1.729,9.603,1.938,12.86l29.24,25.999l-20.303,33.449
				c-2.91,4.796-1.381,11.043,3.414,13.953c1.646,1,3.465,1.475,5.26,1.475c3.434,0,6.781-1.738,8.691-4.888l24.695-40.685
				C361.07,148.683,360.256,143.273,356.592,140.013z"/>
		</g>
	</g>
</g>
</svg>