<svg width="40" height="40" viewBox="0 0 40 40" fill="none" xmlns="http://www.w3.org/2000/svg">
<path d="M19.9998 20C18.1665 20 16.5971 19.3472 15.2915 18.0417C13.9859 16.7361 13.3332 15.1667 13.3332 13.3333C13.3332 11.5 13.9859 9.93055 15.2915 8.62499C16.5971 7.31943 18.1665 6.66666 19.9998 6.66666C21.8332 6.66666 23.4026 7.31943 24.7082 8.62499C26.0137 9.93055 26.6665 11.5 26.6665 13.3333C26.6665 15.1667 26.0137 16.7361 24.7082 18.0417C23.4026 19.3472 21.8332 20 19.9998 20ZM6.6665 33.3333V28.6667C6.6665 27.7222 6.90956 26.8542 7.39567 26.0625C7.88178 25.2708 8.52762 24.6667 9.33317 24.25C11.0554 23.3889 12.8054 22.743 14.5832 22.3125C16.3609 21.8819 18.1665 21.6667 19.9998 21.6667C21.8332 21.6667 23.6387 21.8819 25.4165 22.3125C27.1943 22.743 28.9443 23.3889 30.6665 24.25C31.4721 24.6667 32.1179 25.2708 32.604 26.0625C33.0901 26.8542 33.3332 27.7222 33.3332 28.6667V33.3333H6.6665ZM9.99984 30H29.9998V28.6667C29.9998 28.3611 29.9234 28.0833 29.7707 27.8333C29.6179 27.5833 29.4165 27.3889 29.1665 27.25C27.6665 26.5 26.1526 25.9375 24.6248 25.5625C23.0971 25.1875 21.5554 25 19.9998 25C18.4443 25 16.9026 25.1875 15.3748 25.5625C13.8471 25.9375 12.3332 26.5 10.8332 27.25C10.5832 27.3889 10.3818 27.5833 10.229 27.8333C10.0762 28.0833 9.99984 28.3611 9.99984 28.6667V30ZM19.9998 16.6667C20.9165 16.6667 21.7012 16.3403 22.354 15.6875C23.0068 15.0347 23.3332 14.25 23.3332 13.3333C23.3332 12.4167 23.0068 11.6319 22.354 10.9792C21.7012 10.3264 20.9165 9.99999 19.9998 9.99999C19.0832 9.99999 18.2984 10.3264 17.6457 10.9792C16.9929 11.6319 16.6665 12.4167 16.6665 13.3333C16.6665 14.25 16.9929 15.0347 17.6457 15.6875C18.2984 16.3403 19.0832 16.6667 19.9998 16.6667Z" fill="#18181A"/>
</svg>
